HIERARCHY
ROOT SpineBase
{
  OFFSET 0.000000 0.000000 0.000000
  CHANNELS 6 Xposition Yposition Zposition Zrotation Xrotation Yrotation
  JOINT SpineMid
  {
    OFFSET -0.000000 25.439116 0.000000
    CHANNELS 3 Zrotation Xrotation Yrotation
    JOINT SpineShoulder
    {
      OFFSET -0.115972 18.631368 -0.180391
      CHANNELS 3 Zrotation Xrotation Yrotation
      JOINT Neck
      {
        OFFSET 0.002443 6.527674 -0.346110
        CHANNELS 3 Zrotation Xrotation Yrotation
        JOINT Head
        {
          OFFSET 6.155943 11.778410 -0.932487
          CHANNELS 3 Zrotation Xrotation Yrotation
          End Site
          {
            OFFSET 0 0 0
          }
        }
      }
      JOINT ShoulderLeft
      {
        OFFSET -8.606698 -4.860395 -6.703703
        CHANNELS 3 Zrotation Xrotation Yrotation
        JOINT ElbowLeft
        {
          OFFSET -4.657778 -22.899874 -4.512471
          CHANNELS 3 Zrotation Xrotation Yrotation
          JOINT WristLeft
          {
            OFFSET 5.188255 -19.981246 -2.175366
            CHANNELS 3 Zrotation Xrotation Yrotation
            JOINT HandLeft
            {
              OFFSET 2.138344 -7.009625 0.948984
              CHANNELS 3 Zrotation Xrotation Yrotation
              JOINT HandTipLeft
              {
                OFFSET 2.322388 -6.492277 -2.493578
                CHANNELS 3 Zrotation Xrotation Yrotation
                End Site
                {
                  OFFSET 0 0 0
                }
              }
              JOINT ThumbLeft
              {
                OFFSET 2.637963 3.194715 -0.045471
                CHANNELS 3 Zrotation Xrotation Yrotation
                End Site
                {
                  OFFSET 0 0 0
                }
              }
            }
          }
        }
      }
      JOINT ShoulderRight
      {
        OFFSET 7.844712 1.711680 5.160691
        CHANNELS 3 Zrotation Xrotation Yrotation
        JOINT ElbowRight
        {
          OFFSET 0.012705 -25.280883 -6.235836
          CHANNELS 3 Zrotation Xrotation Yrotation
          JOINT WristRight
          {
            OFFSET -7.574671 -19.216652 -0.470564
            CHANNELS 3 Zrotation Xrotation Yrotation
            JOINT HandRight
            {
              OFFSET -1.968288 -4.216150 -9.917947
              CHANNELS 3 Zrotation Xrotation Yrotation
              JOINT HandTipRight
              {
                OFFSET -1.029911 -3.614439 -0.621411
                CHANNELS 3 Zrotation Xrotation Yrotation
                End Site
                {
                  OFFSET 0 0 0
                }
              }
              JOINT ThumbRight
              {
                OFFSET -2.621460 3.510582 -1.354393
                CHANNELS 3 Zrotation Xrotation Yrotation
                End Site
                {
                  OFFSET 0 0 0
                }
              }
            }
          }
        }
      }
    }
  }
  JOINT HipLeft
  {
    OFFSET -4.946782 1.034022 -4.793779
    CHANNELS 3 Zrotation Xrotation Yrotation
    JOINT KneeLeft
    {
      OFFSET 2.242199 -34.707498 2.570684
      CHANNELS 3 Zrotation Xrotation Yrotation
      JOINT AnkleLeft
      {
        OFFSET -2.199680 -34.491334 11.918149
        CHANNELS 3 Zrotation Xrotation Yrotation
        JOINT FootLeft
        {
          OFFSET 3.264776 -7.125055 0.360038
          CHANNELS 3 Zrotation Xrotation Yrotation
          End Site
          {
            OFFSET 0 0 0
          }
        }
      }
    }
  }
  JOINT HipRight
  {
    OFFSET 4.391118 0.614839 -1.264746
    CHANNELS 3 Zrotation Xrotation Yrotation
    JOINT KneeRight
    {
      OFFSET 3.386690 -36.518553 11.469217
      CHANNELS 3 Zrotation Xrotation Yrotation
      JOINT AnkleRight
      {
        OFFSET -1.814330 -26.461431 8.124086
        CHANNELS 3 Zrotation Xrotation Yrotation
        JOINT FootRight
        {
          OFFSET 4.893352 -3.704963 -8.980101
          CHANNELS 3 Zrotation Xrotation Yrotation
          End Site
          {
            OFFSET 0 0 0
          }
        }
      }
    }
  }
}
MOTION
Frames: 10
Frame Time: 0.033333
28.132906 67.649797 310.594749 1.060197 5.046891 -29.031715 24.168041 -33.114183 36.553886 -2.195815 38.970278 0.540550 -4.335928 6.290758 -5.584990 0.000000 0.000000 0.000000 152.109120 -18.070313 10.290044 -151.686638 -15.474798 17.373031 -17.027818 6.595250 0.089435 18.405063 -21.011898 -3.280474 0.000000 0.000000 0.000000 0.000000 0.000000 0.000000 -1.085320 -6.840742 -0.125897 0.184733 -0.111005 1.224088 44.061991 -68.673468 49.961402 -142.215581 22.125772 120.179953 0.000000 0.000000 0.000000 0.000000 0.000000 0.000000 3.809282 8.375575 30.295836 30.981214 -29.526074 25.778179 -90.674025 69.078101 67.319463 0.000000 0.000000 0.000000 0.376367 -0.192089 29.851786 149.920814 70.960587 -146.792165 -163.391494 -38.714650 -137.243474 0.000000 0.000000 0.000000
22.045443 70.486162 272.176562 0.895048 4.331726 -16.955713 33.947152 -55.776248 35.629302 -7.606601 62.435220 4.493955 -5.625909 34.973775 -20.578422 0.000000 0.000000 0.000000 171.693873 -3.709545 84.754848 -172.559817 -2.142910 85.405244 -6.147152 -1.698952 -4.047494 12.640426 -8.457081 -0.397980 0.000000 0.000000 0.000000 0.000000 0.000000 0.000000 0.073751 -25.280752 -0.045966 12.100860 0.522432 5.813750 27.937739 -74.022633 34.627837 -161.399511 -26.045674 132.062555 0.000000 0.000000 0.000000 0.000000 0.000000 0.000000 10.532585 -2.279684 18.225731 51.150316 -39.127788 43.246852 -131.953103 57.437203 94.269211 0.000000 0.000000 0.000000 4.329222 -9.774097 17.508867 17.348234 -58.016426 18.077579 -29.534200 30.214103 23.620518 0.000000 0.000000 0.000000
18.999489 75.498991 242.147430 0.380296 0.856013 3.462526 1.516534 -63.700759 -2.629644 -10.325482 65.836591 6.944947 5.853630 57.865881 -39.461746 0.000000 0.000000 0.000000 166.006071 -3.023463 121.015689 -172.837653 1.267080 121.661631 4.765037 -4.486436 -5.389363 3.456085 -0.841468 4.051561 0.000000 0.000000 0.000000 0.000000 0.000000 0.000000 3.147349 -42.208791 0.558792 14.666656 7.040841 7.558292 15.724183 -73.422660 24.186139 -152.113426 -29.324022 137.291035 0.000000 0.000000 0.000000 0.000000 0.000000 0.000000 9.325094 -12.041573 -2.296530 51.569551 -38.886983 41.060963 -122.666884 47.291064 78.161985 0.000000 0.000000 0.000000 2.519630 -14.423158 -3.151122 11.208890 -47.350302 13.000650 -28.304582 26.189958 16.076969 0.000000 0.000000 0.000000
19.072226 81.813416 220.163820 0.078612 -4.047014 21.812747 -27.482391 -56.050040 -37.176764 -9.914913 63.923482 6.586747 29.718587 69.317824 -65.996229 0.000000 0.000000 0.000000 160.523821 -12.065798 136.078876 -163.036191 7.849027 134.765838 20.521447 0.529619 -4.452622 -6.715511 -0.012933 5.741147 0.000000 0.000000 0.000000 0.000000 0.000000 0.000000 6.680292 -52.554042 1.848912 9.892092 13.799828 11.249983 11.183551 -65.138865 20.806496 -140.761063 10.998181 135.618419 0.000000 0.000000 0.000000 0.000000 0.000000 0.000000 2.489393 -16.828133 -22.303547 44.975197 -33.612745 31.100972 -114.036255 44.804468 68.253808 0.000000 0.000000 0.000000 0.476345 -13.783054 -21.716751 7.254183 -39.667130 10.480183 -26.480783 25.380940 14.992584 0.000000 0.000000 0.000000
22.332336 88.282147 207.248719 1.244430 -6.965973 27.393028 -31.071912 -50.451711 -42.221425 -5.964857 60.712828 3.071234 53.807078 71.255300 -91.424159 0.000000 0.000000 0.000000 151.186516 -29.842562 139.300947 -150.704583 24.068266 131.658377 30.883187 3.323442 -5.265401 -14.949689 -2.616484 5.669133 0.000000 0.000000 0.000000 0.000000 0.000000 0.000000 8.912809 -56.601216 3.197671 -1.690539 17.606857 19.607849 13.160112 -49.670062 21.899747 -114.931485 73.471388 100.240422 0.000000 0.000000 0.000000 0.000000 0.000000 0.000000 -3.626113 -17.197941 -29.066066 34.598392 -23.309972 18.975353 -92.715475 47.263705 49.716766 0.000000 0.000000 0.000000 -0.122951 -11.486317 -27.128160 5.021196 -33.750538 8.746319 -21.969104 31.836455 15.941069 0.000000 0.000000 0.000000
28.299584 95.625658 204.376494 3.151708 -6.245703 20.996396 -23.678483 -52.007582 -31.363909 -1.541494 58.156562 -0.780608 58.267798 69.039466 -95.875316 0.000000 0.000000 0.000000 63.183757 -65.567635 60.129247 -82.260463 46.653024 57.998290 36.973651 6.615773 -5.935657 -19.631643 -14.964818 -1.319443 0.000000 0.000000 0.000000 0.000000 0.000000 0.000000 10.439254 -57.735663 4.511122 -19.563187 18.352322 30.969530 17.857019 -27.464167 19.373818 -0.079075 47.067344 -24.019306 0.000000 0.000000 0.000000 0.000000 0.000000 0.000000 -7.202733 -18.439572 -22.898183 20.957873 1.537232 5.976855 -49.245907 47.601206 22.570898 0.000000 0.000000 0.000000 -0.451556 -9.307330 -20.305468 3.854805 -28.627157 7.117886 -16.074842 40.639302 18.357281 0.000000 0.000000 0.000000
34.274346 97.260129 210.719656 3.611640 -4.895741 19.674200 -20.258002 -49.999445 -27.689094 -0.446613 53.670403 -1.607173 53.267575 62.591624 -83.224852 0.000000 0.000000 0.000000 12.419254 -37.112616 11.633480 -46.081775 19.606148 14.955262 35.958498 12.927536 -5.747211 -22.610422 -20.483314 -3.907925 0.000000 0.000000 0.000000 0.000000 0.000000 0.000000 12.566733 -55.281351 4.775338 -41.389010 16.972661 41.070517 27.458693 -8.427717 13.672655 -2.504491 7.874478 -22.006639 0.000000 0.000000 0.000000 0.000000 0.000000 0.000000 -9.440113 -15.737693 -21.577690 17.046161 15.650218 1.956378 -39.347973 49.863280 27.950423 0.000000 0.000000 0.000000 1.122960 -6.129112 -18.306327 3.905413 -27.241721 6.558952 -16.505460 40.261632 21.841038 0.000000 0.000000 0.000000
40.333087 94.674582 226.385631 3.458108 -2.770356 23.525399 -17.611585 -40.167664 -28.860095 -0.699101 42.643983 -1.062358 39.002968 47.822104 -51.913999 0.000000 0.000000 0.000000 6.219785 -22.020629 5.078130 -35.818288 8.596538 5.419640 28.467285 26.012233 0.293279 -28.655909 -37.918298 -19.178099 0.000000 0.000000 0.000000 0.000000 0.000000 0.000000 11.634110 -45.926945 2.557881 -59.220507 14.721478 41.075679 37.997490 -10.994328 17.372159 -3.822860 -6.221888 -19.130001 0.000000 0.000000 0.000000 0.000000 0.000000 0.000000 -10.030084 -7.934355 -24.747075 14.969760 18.692839 1.175169 -38.585142 53.107932 39.037216 0.000000 0.000000 0.000000 2.742006 -3.288695 -21.578058 4.018299 -24.447413 5.700605 -17.361189 34.458100 22.841657 0.000000 0.000000 0.000000
46.355056 87.397789 251.983551 3.231096 -0.633836 7.557921 1.675670 13.204176 -8.000953 1.428753 -15.109188 0.876902 27.305195 20.120854 -15.800797 0.000000 0.000000 0.000000 5.014172 -13.963110 2.408527 -28.411356 -1.308037 -0.226367 6.783488 41.688577 12.409897 -32.045073 -54.200412 -37.970209 0.000000 0.000000 0.000000 0.000000 0.000000 0.000000 8.511440 -27.104340 -0.573526 -66.122363 15.663910 27.860205 45.724276 -21.469309 26.014500 -3.809502 -9.702342 -17.116059 0.000000 0.000000 0.000000 0.000000 0.000000 0.000000 -8.674025 -0.990063 -8.075235 14.819817 14.245264 1.663001 -40.109655 54.265258 46.886343 0.000000 0.000000 0.000000 4.890462 4.051445 -5.110719 5.358230 -15.760491 4.030640 -20.318856 16.106525 21.677718 0.000000 0.000000 0.000000
50.735010 80.415448 280.489375 3.320353 0.058389 -20.193256 -3.008461 6.787353 20.228905 1.738172 -9.456392 0.658068 27.552094 9.248409 -5.451899 0.000000 0.000000 0.000000 4.906233 -8.904939 0.789463 -29.055681 -6.801912 -1.259600 -0.391086 37.050968 13.212453 -23.616812 -54.645048 -34.099092 0.000000 0.000000 0.000000 0.000000 0.000000 0.000000 5.589874 -17.373005 -1.378447 -65.720196 15.109848 19.745600 53.382194 -30.330604 31.519158 -2.679194 -3.446787 -17.275587 0.000000 0.000000 0.000000 0.000000 0.000000 0.000000 -7.997029 -0.613654 19.899294 12.319418 12.111104 1.493789 -39.138943 52.487349 47.622375 0.000000 0.000000 0.000000 1.475187 8.989903 23.092116 7.855667 21.356193 -3.365670 -23.182092 -19.752262 16.581956 0.000000 0.000000 0.000000
